<svg width="461" height="42" viewBox="0 0 461 42" fill="none" xmlns="http://www.w3.org/2000/svg">
<path d="M9.375 3.375H29.1562C30.0312 3.40625 30.75 3.73437 31.3125 4.35938C31.9062 4.98438 32.2031 5.73438 32.2031 6.60938C32.0469 8.48438 31.0312 9.5 29.1562 9.65625H10.9688C9.78125 9.71875 8.79688 10.1719 8.01562 11.0156C7.23438 11.8594 6.65625 12.8281 6.28125 13.9219C5.9375 14.9844 5.76562 16.0781 5.76562 17.2031C5.76562 18.3281 5.9375 19.4375 6.28125 20.5312C6.65625 21.5938 7.23438 22.5469 8.01562 23.3906C8.79688 24.2344 9.78125 24.6875 10.9688 24.75H25.2188C25.7812 24.7188 26.0781 24.4062 26.1094 23.8125V21.0938C26.0781 20.4688 25.7812 20.1562 25.2188 20.1562H13.2188C12.3438 20.1562 11.5938 19.8594 10.9688 19.2656C10.375 18.6406 10.0781 17.8906 10.0781 17.0156C10.0781 16.1406 10.375 15.3906 10.9688 14.7656C11.5938 14.1719 12.3438 13.875 13.2188 13.875H29.25C30.125 13.875 30.875 14.1719 31.5 14.7656C32.0625 15.3594 32.3594 16.0781 32.3906 16.9219V17.0156V27.9844C32.3594 28.8281 32.0625 29.5312 31.5 30.0938C30.9062 30.6875 30.1875 31 29.3438 31.0312H9.375C7.1875 30.9062 5.375 30.0781 3.9375 28.5469C2.53125 26.9844 1.51562 25.2188 0.890625 23.25C0.296875 21.2812 0 19.2656 0 17.2031C0 15.1406 0.3125 13.125 0.9375 11.1562C1.5625 9.1875 2.57812 7.4375 3.98438 5.90625C5.39062 4.34375 7.1875 3.5 9.375 3.375ZM39.1875 15.6562C39.7812 14.1562 40.7812 12.8125 42.1875 11.625C43.625 10.4062 45.4375 9.78125 47.625 9.75H65.25C66.125 9.75 66.8594 10.0625 67.4531 10.6875C68.0781 11.2812 68.3906 12.0156 68.3906 12.8906C68.3906 13.7656 68.0781 14.5156 67.4531 15.1406C66.8594 15.7344 66.125 16.0312 65.25 16.0312H47.4375C46.8438 16.0312 46.3281 16.2812 45.8906 16.7812C45.4531 17.25 45.1094 17.8125 44.8594 18.4688C44.6406 19.125 44.5312 19.75 44.5312 20.3438V28.5469C44.3438 30.4219 43.3125 31.4375 41.4375 31.5938C40.5625 31.5938 39.7969 31.3125 39.1406 30.75C38.5156 30.1562 38.2031 29.4219 38.2031 28.5469V20.3906H38.25C38.25 18.7656 38.5625 17.1875 39.1875 15.6562ZM82.6406 31.0312C79.8906 30.9375 77.8125 30.2969 76.4062 29.1094C75 27.8906 73.9844 26.5312 73.3594 25.0312C72.7344 23.5 72.4219 21.9531 72.4219 20.3906C72.4219 18.7656 72.7188 17.2031 73.3125 15.7031C73.9375 14.1719 74.9531 12.8125 76.3594 11.625C77.7969 10.4062 79.6094 9.78125 81.7969 9.75H99.6094C100.484 9.75 101.219 10.0469 101.812 10.6406C102.438 11.2031 102.75 11.8906 102.75 12.7031C102.75 13.5469 102.438 14.2656 101.812 14.8594C101.219 15.4219 100.484 15.7031 99.6094 15.7031H82.0781C81.3906 15.7031 80.7812 15.9375 80.25 16.4062C79.75 16.875 79.375 17.4844 79.125 18.2344C78.9062 18.9844 78.7969 19.7188 78.7969 20.4375C78.7969 21.2188 78.9062 21.9844 79.125 22.7344C79.375 23.4844 79.75 24.0938 80.25 24.5625C80.7812 25 81.3906 25.2344 82.0781 25.2656H99.6094C100.484 25.2656 101.219 25.5469 101.812 26.1094C102.438 26.6719 102.75 27.3438 102.75 28.125C102.75 28.9375 102.438 29.625 101.812 30.1875C101.219 30.75 100.484 31.0312 99.6094 31.0312H82.6406ZM102.188 20.2969C102.188 20.8906 101.922 21.4062 101.391 21.8438C100.922 22.25 100.328 22.4531 99.6094 22.4531H84.2812C83.5625 22.4531 82.9531 22.25 82.4531 21.8438C81.9531 21.4062 81.7031 20.8906 81.7031 20.2969C81.7031 19.7344 81.9531 19.2344 82.4531 18.7969C82.9531 18.3906 83.5625 18.1875 84.2812 18.1875H99.6094C100.328 18.1875 100.938 18.4062 101.438 18.8438C101.938 19.25 102.188 19.7344 102.188 20.2969ZM117.75 31.0312C115 30.9375 112.922 30.2969 111.516 29.1094C110.109 27.8906 109.094 26.5312 108.469 25.0312C107.844 23.5 107.531 21.9531 107.531 20.3906C107.531 18.7656 107.828 17.2031 108.422 15.7031C109.047 14.1719 110.062 12.8125 111.469 11.625C112.906 10.4062 114.719 9.78125 116.906 9.75H134.719C135.594 9.75 136.328 10.0469 136.922 10.6406C137.547 11.2031 137.859 11.8906 137.859 12.7031C137.859 13.5469 137.547 14.2656 136.922 14.8594C136.328 15.4219 135.594 15.7031 134.719 15.7031H117.188C116.5 15.7031 115.891 15.9375 115.359 16.4062C114.859 16.875 114.484 17.4844 114.234 18.2344C114.016 18.9844 113.906 19.7188 113.906 20.4375C113.906 21.2188 114.016 21.9844 114.234 22.7344C114.484 23.4844 114.859 24.0938 115.359 24.5625C115.891 25 116.5 25.2344 117.188 25.2656H134.719C135.594 25.2656 136.328 25.5469 136.922 26.1094C137.547 26.6719 137.859 27.3438 137.859 28.125C137.859 28.9375 137.547 29.625 136.922 30.1875C136.328 30.75 135.594 31.0312 134.719 31.0312H117.75ZM137.297 20.2969C137.297 20.8906 137.031 21.4062 136.5 21.8438C136.031 22.25 135.438 22.4531 134.719 22.4531H119.391C118.672 22.4531 118.062 22.25 117.562 21.8438C117.062 21.4062 116.812 20.8906 116.812 20.2969C116.812 19.7344 117.062 19.2344 117.562 18.7969C118.062 18.3906 118.672 18.1875 119.391 18.1875H134.719C135.438 18.1875 136.047 18.4062 136.547 18.8438C137.047 19.25 137.297 19.7344 137.297 20.2969ZM158.203 9.04688C159.828 9.04688 161.422 9.23438 162.984 9.60938C164.578 9.98438 166.094 10.5469 167.531 11.2969C168.969 12.0156 170.234 12.9844 171.328 14.2031C172.453 15.4219 173.062 16.875 173.156 18.5625V20.5312V28.5469C172.969 30.4219 171.938 31.4375 170.062 31.5938C169.188 31.5938 168.422 31.3125 167.766 30.75C167.141 30.1562 166.828 29.4219 166.828 28.5469V26.4844V20.0156C166.766 19.0469 166.391 18.25 165.703 17.625C165.047 16.9688 164.297 16.4531 163.453 16.0781C162.641 15.7031 161.781 15.4219 160.875 15.2344C160 15.0469 159.109 14.9531 158.203 14.9531C157.297 14.9531 156.391 15.0469 155.484 15.2344C154.609 15.4219 153.75 15.7031 152.906 16.0781C152.094 16.4531 151.344 16.9688 150.656 17.625C150 18.25 149.641 19.0469 149.578 20.0156V26.4844V28.5469C149.422 30.4219 148.406 31.4375 146.531 31.5938C145.656 31.5938 144.891 31.3125 144.234 30.75C143.609 30.1562 143.297 29.4219 143.297 28.5469V20.5312V18.5625C143.391 16.875 143.984 15.4219 145.078 14.2031C146.172 12.9844 147.438 12.0156 148.875 11.2969C150.312 10.5469 151.812 9.98438 153.375 9.60938C154.969 9.23438 156.578 9.04688 158.203 9.04688ZM211.828 3.375H213.984H229.922C230.797 3.40625 231.516 3.73437 232.078 4.35938C232.672 4.98438 232.969 5.73438 232.969 6.60938C232.812 8.48438 231.797 9.5 229.922 9.65625H213.422C212.234 9.71875 211.25 10.1719 210.469 11.0156C209.688 11.8594 209.109 12.8281 208.734 13.9219C208.391 14.9844 208.219 16.0781 208.219 17.2031C208.219 18.3281 208.391 19.4375 208.734 20.5312C209.109 21.5938 209.688 22.5469 210.469 23.3906C211.25 24.2344 212.234 24.6875 213.422 24.75H229.922C230.797 24.7812 231.516 25.1094 232.078 25.7344C232.672 26.3594 232.969 27.1094 232.969 27.9844C232.938 28.8281 232.625 29.5469 232.031 30.1406C231.469 30.7031 230.766 31 229.922 31.0312H212.719H211.828C209.641 30.9062 207.828 30.0781 206.391 28.5469C204.984 26.9844 203.969 25.2188 203.344 23.25C202.75 21.2812 202.453 19.2656 202.453 17.2031C202.453 15.1406 202.766 13.125 203.391 11.1562C204.016 9.1875 205.031 7.4375 206.438 5.90625C207.844 4.34375 209.641 3.5 211.828 3.375ZM232.875 17.0156C232.875 17.8906 232.562 18.625 231.938 19.2188C231.344 19.8438 230.609 20.1562 229.734 20.1562H215.578C214.703 20.1562 213.953 19.8594 213.328 19.2656C212.734 18.6406 212.438 17.8906 212.438 17.0156C212.438 16.1406 212.734 15.3906 213.328 14.7656C213.953 14.1719 214.703 13.875 215.578 13.875H229.734C230.609 13.875 231.344 14.1875 231.938 14.8125C232.562 15.4062 232.875 16.1406 232.875 17.0156ZM252.609 9.04688C254.234 9.04688 255.828 9.23438 257.391 9.60938C258.984 9.98438 260.5 10.5469 261.938 11.2969C263.375 12.0156 264.641 12.9844 265.734 14.2031C266.859 15.4219 267.469 16.875 267.562 18.5625V20.5312V28.5469C267.375 30.4219 266.344 31.4375 264.469 31.5938C263.594 31.5938 262.828 31.3125 262.172 30.75C261.547 30.1562 261.234 29.4219 261.234 28.5469V26.4844V20.0156C261.172 19.0469 260.797 18.25 260.109 17.625C259.453 16.9688 258.703 16.4531 257.859 16.0781C257.047 15.7031 256.188 15.4219 255.281 15.2344C254.406 15.0469 253.516 14.9531 252.609 14.9531C251.703 14.9531 250.797 15.0469 249.891 15.2344C249.016 15.4219 248.156 15.7031 247.312 16.0781C246.5 16.4531 245.75 16.9688 245.062 17.625C244.406 18.25 244.047 19.0469 243.984 20.0156V26.4844V28.5469C243.828 30.4219 242.812 31.4375 240.938 31.5938C240.062 31.5938 239.297 31.3125 238.641 30.75C238.016 30.1562 237.703 29.4219 237.703 28.5469V20.5312V18.5625C237.797 16.875 238.391 15.4219 239.484 14.2031C240.578 12.9844 241.844 12.0156 243.281 11.2969C244.719 10.5469 246.219 9.98438 247.781 9.60938C249.375 9.23438 250.984 9.04688 252.609 9.04688ZM299.812 17.25C299.812 16.4688 299.406 16.0625 298.594 16.0312H282.188C281.594 16.0625 281.078 16.3281 280.641 16.8281C280.203 17.2969 279.875 17.8594 279.656 18.5156C279.469 19.1406 279.375 19.7812 279.375 20.4375C279.375 21.0625 279.469 21.7031 279.656 22.3594C279.875 22.9844 280.203 23.5469 280.641 24.0469C281.078 24.5156 281.594 24.75 282.188 24.75H294.188C295.062 24.75 295.797 25.0625 296.391 25.6875C297.016 26.2812 297.328 27.0156 297.328 27.8906C297.328 28.7656 297.016 29.5 296.391 30.0938C295.797 30.7188 295.062 31.0312 294.188 31.0312H282.375C280.188 31 278.375 30.3906 276.938 29.2031C275.531 27.9844 274.516 26.625 273.891 25.125C273.297 23.5938 273 22.0156 273 20.3906C273 18.8281 273.312 17.2969 273.938 15.7969C274.562 14.2656 275.578 12.9062 276.984 11.7188C278.391 10.5 280.469 9.84375 283.219 9.75H302.906C303.781 9.75 304.531 10.0469 305.156 10.6406C305.781 11.2031 306.109 11.9219 306.141 12.7969V27.6094C306.141 30.1094 305.797 32.4688 305.109 34.6875C304.484 36.6562 303.453 38.3125 302.016 39.6562C300.609 41.0312 298.812 41.7812 296.625 41.9062H280.406C279.562 41.875 278.844 41.5625 278.25 40.9688C277.688 40.4062 277.391 39.7031 277.359 38.8594C277.359 37.9844 277.641 37.2344 278.203 36.6094C278.797 35.9844 279.531 35.6562 280.406 35.625H295.031C296.219 35.5625 297.203 35.1094 297.984 34.2656C298.766 33.4219 299.266 32.4375 299.484 31.3125C299.703 30.1875 299.812 28.7344 299.812 26.9531V17.25ZM315.703 9.28125C316.547 9.3125 317.266 9.625 317.859 10.2188C318.453 10.7812 318.766 11.4844 318.797 12.3281V28.5469C318.609 30.4219 317.578 31.4375 315.703 31.5938C314.828 31.5938 314.062 31.3125 313.406 30.75C312.781 30.1562 312.469 29.4219 312.469 28.5469V12.3281C312.5 11.4531 312.828 10.7344 313.453 10.1719C314.078 9.57812 314.828 9.28125 315.703 9.28125ZM311.766 3.1875C311.766 2.3125 312.141 1.5625 312.891 0.9375C313.641 0.3125 314.547 0 315.609 0C316.672 0 317.578 0.3125 318.328 0.9375C319.078 1.5625 319.453 2.3125 319.453 3.1875C319.453 4.09375 319.078 4.85937 318.328 5.48438C317.578 6.10938 316.672 6.42188 315.609 6.42188C314.547 6.42188 313.641 6.10938 312.891 5.48438C312.141 4.85937 311.766 4.09375 311.766 3.1875ZM339.469 9.04688C341.094 9.04688 342.688 9.23438 344.25 9.60938C345.844 9.98438 347.359 10.5469 348.797 11.2969C350.234 12.0156 351.5 12.9844 352.594 14.2031C353.719 15.4219 354.328 16.875 354.422 18.5625V20.5312V28.5469C354.234 30.4219 353.203 31.4375 351.328 31.5938C350.453 31.5938 349.688 31.3125 349.031 30.75C348.406 30.1562 348.094 29.4219 348.094 28.5469V26.4844V20.0156C348.031 19.0469 347.656 18.25 346.969 17.625C346.312 16.9688 345.562 16.4531 344.719 16.0781C343.906 15.7031 343.047 15.4219 342.141 15.2344C341.266 15.0469 340.375 14.9531 339.469 14.9531C338.562 14.9531 337.656 15.0469 336.75 15.2344C335.875 15.4219 335.016 15.7031 334.172 16.0781C333.359 16.4531 332.609 16.9688 331.922 17.625C331.266 18.25 330.906 19.0469 330.844 20.0156V26.4844V28.5469C330.688 30.4219 329.672 31.4375 327.797 31.5938C326.922 31.5938 326.156 31.3125 325.5 30.75C324.875 30.1562 324.562 29.4219 324.562 28.5469V20.5312V18.5625C324.656 16.875 325.25 15.4219 326.344 14.2031C327.438 12.9844 328.703 12.0156 330.141 11.2969C331.578 10.5469 333.078 9.98438 334.641 9.60938C336.234 9.23438 337.844 9.04688 339.469 9.04688ZM369.984 31.0312C367.234 30.9375 365.156 30.2969 363.75 29.1094C362.344 27.8906 361.328 26.5312 360.703 25.0312C360.078 23.5 359.766 21.9531 359.766 20.3906C359.766 18.7656 360.062 17.2031 360.656 15.7031C361.281 14.1719 362.297 12.8125 363.703 11.625C365.141 10.4062 366.953 9.78125 369.141 9.75H386.953C387.828 9.75 388.562 10.0469 389.156 10.6406C389.781 11.2031 390.094 11.8906 390.094 12.7031C390.094 13.5469 389.781 14.2656 389.156 14.8594C388.562 15.4219 387.828 15.7031 386.953 15.7031H369.422C368.734 15.7031 368.125 15.9375 367.594 16.4062C367.094 16.875 366.719 17.4844 366.469 18.2344C366.25 18.9844 366.141 19.7188 366.141 20.4375C366.141 21.2188 366.25 21.9844 366.469 22.7344C366.719 23.4844 367.094 24.0938 367.594 24.5625C368.125 25 368.734 25.2344 369.422 25.2656H386.953C387.828 25.2656 388.562 25.5469 389.156 26.1094C389.781 26.6719 390.094 27.3438 390.094 28.125C390.094 28.9375 389.781 29.625 389.156 30.1875C388.562 30.75 387.828 31.0312 386.953 31.0312H369.984ZM389.531 20.2969C389.531 20.8906 389.266 21.4062 388.734 21.8438C388.266 22.25 387.672 22.4531 386.953 22.4531H371.625C370.906 22.4531 370.297 22.25 369.797 21.8438C369.297 21.4062 369.047 20.8906 369.047 20.2969C369.047 19.7344 369.297 19.2344 369.797 18.7969C370.297 18.3906 370.906 18.1875 371.625 18.1875H386.953C387.672 18.1875 388.281 18.4062 388.781 18.8438C389.281 19.25 389.531 19.7344 389.531 20.2969ZM405.094 31.0312C402.344 30.9375 400.266 30.2969 398.859 29.1094C397.453 27.8906 396.438 26.5312 395.812 25.0312C395.188 23.5 394.875 21.9531 394.875 20.3906C394.875 18.7656 395.172 17.2031 395.766 15.7031C396.391 14.1719 397.406 12.8125 398.812 11.625C400.25 10.4062 402.062 9.78125 404.25 9.75H422.062C422.938 9.75 423.672 10.0469 424.266 10.6406C424.891 11.2031 425.203 11.8906 425.203 12.7031C425.203 13.5469 424.891 14.2656 424.266 14.8594C423.672 15.4219 422.938 15.7031 422.062 15.7031H404.531C403.844 15.7031 403.234 15.9375 402.703 16.4062C402.203 16.875 401.828 17.4844 401.578 18.2344C401.359 18.9844 401.25 19.7188 401.25 20.4375C401.25 21.2188 401.359 21.9844 401.578 22.7344C401.828 23.4844 402.203 24.0938 402.703 24.5625C403.234 25 403.844 25.2344 404.531 25.2656H422.062C422.938 25.2656 423.672 25.5469 424.266 26.1094C424.891 26.6719 425.203 27.3438 425.203 28.125C425.203 28.9375 424.891 29.625 424.266 30.1875C423.672 30.75 422.938 31.0312 422.062 31.0312H405.094ZM424.641 20.2969C424.641 20.8906 424.375 21.4062 423.844 21.8438C423.375 22.25 422.781 22.4531 422.062 22.4531H406.734C406.016 22.4531 405.406 22.25 404.906 21.8438C404.406 21.4062 404.156 20.8906 404.156 20.2969C404.156 19.7344 404.406 19.2344 404.906 18.7969C405.406 18.3906 406.016 18.1875 406.734 18.1875H422.062C422.781 18.1875 423.391 18.4062 423.891 18.8438C424.391 19.25 424.641 19.7344 424.641 20.2969ZM431.578 15.6562C432.172 14.1562 433.172 12.8125 434.578 11.625C436.016 10.4062 437.828 9.78125 440.016 9.75H457.641C458.516 9.75 459.25 10.0625 459.844 10.6875C460.469 11.2812 460.781 12.0156 460.781 12.8906C460.781 13.7656 460.469 14.5156 459.844 15.1406C459.25 15.7344 458.516 16.0312 457.641 16.0312H439.828C439.234 16.0312 438.719 16.2812 438.281 16.7812C437.844 17.25 437.5 17.8125 437.25 18.4688C437.031 19.125 436.922 19.75 436.922 20.3438V28.5469C436.734 30.4219 435.703 31.4375 433.828 31.5938C432.953 31.5938 432.188 31.3125 431.531 30.75C430.906 30.1562 430.594 29.4219 430.594 28.5469V20.3906H430.641C430.641 18.7656 430.953 17.1875 431.578 15.6562Z" fill="white"/>
</svg>
