<svg width="401" height="38" viewBox="0 0 401 38" fill="none" xmlns="http://www.w3.org/2000/svg">
<path d="M0.4375 12.25C0.4375 11.4375 0.734375 10.75 1.32812 10.1875C1.95312 9.59375 2.70312 9.29688 3.57812 9.29688H16.6094C17.4844 9.29688 18.2344 9.57812 18.8594 10.1406C19.4531 10.7344 19.75 11.6875 19.75 13V20.125H24.0156V13.9844C24.0469 13.1094 24.375 12.3906 25 11.8281C25.625 11.2344 26.375 10.9375 27.25 10.9375C28.0938 10.9687 28.8125 11.2813 29.4062 11.875C30 12.4375 30.3125 13.1406 30.3438 13.9844V20.125H30.6719C31.5469 20.125 32.2812 20.4219 32.875 21.0156C33.5 21.5781 33.8125 22.2656 33.8125 23.0781C33.8125 23.9219 33.5 24.6094 32.875 25.1406C32.2812 25.7031 31.5469 25.9844 30.6719 25.9844H30.3438V27.7656C30.3125 30.1406 29.7344 32.625 28.6094 35.2188C27.7031 36.8438 26.3438 37.3594 24.5312 36.7656C23.75 36.3906 23.1719 35.8125 22.7969 35.0312C22.4531 34.25 22.4531 33.4688 22.7969 32.6875C23.6094 30.875 24.0156 29.2969 24.0156 27.9531V25.9844H19.75C19.6875 28.0781 19.375 29.9531 18.8125 31.6094C18.1875 33.3906 17.3125 34.7969 16.1875 35.8281C15.0938 36.8594 13.4531 37.4375 11.2656 37.5625H9.20312C7.14062 37.4688 5.4375 36.9531 4.09375 36.0156C2.65625 35.0469 1.625 33.9375 1 32.6875C0.40625 31.4062 0.109375 30.1094 0.109375 28.7969C0.109375 27.5469 0.421875 26.2969 1.04688 25.0469C1.67188 23.7656 2.6875 22.6406 4.09375 21.6719C5.5 20.7031 7.20312 20.1875 9.20312 20.125H13.4219V15.2031H3.57812C2.70312 15.2031 1.96875 14.9219 1.375 14.3594C0.75 13.7656 0.4375 13.0625 0.4375 12.25ZM12.1562 30.7188C12.625 30.125 12.9688 29.3438 13.1875 28.375C13.3125 27.6875 13.3906 26.8906 13.4219 25.9844H9.20312C8.60938 26.0156 8.10938 26.2031 7.70312 26.5469C7.32812 26.8594 7.04688 27.2188 6.85938 27.625C6.67188 28 6.57812 28.4062 6.57812 28.8438C6.57812 29.125 6.67188 29.5156 6.85938 30.0156C7.04688 30.4844 7.32812 30.875 7.70312 31.1875C8.10938 31.5 8.60938 31.6719 9.20312 31.7031H9.67188C10.8594 31.6406 11.6875 31.3125 12.1562 30.7188ZM57.5312 10.1875C57.5312 9.25 57.8594 8.45312 58.5156 7.79688C59.1719 7.14062 59.9688 6.8125 60.9062 6.8125C61.8438 6.8125 62.6406 7.14062 63.2969 7.79688C63.9531 8.45312 64.2812 9.25 64.2812 10.1875C64.2812 11.125 63.9531 11.9219 63.2969 12.5781C62.6406 13.2344 61.8438 13.5625 60.9062 13.5625C59.9688 13.5625 59.1719 13.2344 58.5156 12.5781C57.8594 11.9219 57.5312 11.125 57.5312 10.1875ZM65.5938 10.1875C65.5938 9.25 65.9219 8.45312 66.5781 7.79688C67.2344 7.14062 68.0312 6.8125 68.9688 6.8125C69.9062 6.8125 70.7031 7.14062 71.3594 7.79688C72.0156 8.45312 72.3438 9.25 72.3438 10.1875C72.3438 11.125 72.0156 11.9219 71.3594 12.5781C70.7031 13.2344 69.9062 13.5625 68.9688 13.5625C68.0312 13.5625 67.2344 13.2344 66.5781 12.5781C65.9219 11.9219 65.5938 11.125 65.5938 10.1875ZM69.1562 18.3906C69.1562 19.2969 68.8438 20.0781 68.2188 20.7344C67.625 21.3594 66.8906 21.6719 66.0156 21.6719H47.4531C46.8594 21.7031 46.3594 21.9688 45.9531 22.4688C45.5781 22.9688 45.2969 23.5312 45.1094 24.1562C44.9219 24.7812 44.8281 25.4062 44.8281 26.0312C44.8281 26.6875 44.9219 27.3281 45.1094 27.9531C45.2969 28.5781 45.5781 29.1406 45.9531 29.6406C46.3594 30.1406 46.8594 30.3906 47.4531 30.3906H66.2031C67.0781 30.3906 67.8125 30.7031 68.4062 31.3281C69.0312 31.9531 69.3438 32.7344 69.3438 33.6719C69.3438 34.5781 69.0312 35.3281 68.4062 35.9219C67.8125 36.5781 67.0781 36.9062 66.2031 36.9062H47.7344C45.5469 36.9375 43.7344 36.3438 42.2969 35.125C40.8906 33.9062 39.875 32.5156 39.25 30.9531C38.6562 29.3906 38.3594 27.7656 38.3594 26.0781C38.3594 24.4531 38.6719 22.8594 39.2969 21.2969C39.9219 19.7344 40.9375 18.3438 42.3438 17.125C43.75 15.9062 45.5469 15.2656 47.7344 15.2031H48.0156C48.2031 15.1719 48.3906 15.1562 48.5781 15.1562H49.3281V10.7969C49.3594 9.92188 49.6875 9.20312 50.3125 8.64062C50.9375 8.04688 51.6875 7.75 52.5625 7.75C53.4062 7.78125 54.125 8.09375 54.7188 8.6875C55.3125 9.25 55.625 9.95312 55.6562 10.7969V15.1562H66.0156C66.8906 15.1562 67.625 15.4688 68.2188 16.0938C68.8438 16.7188 69.1562 17.4844 69.1562 18.3906ZM99.625 8.5C100.469 8.53125 101.188 8.84375 101.781 9.4375C102.375 10 102.688 10.7031 102.719 11.5469V23.4062C102.688 25.625 102.375 27.7188 101.781 29.6875C101.156 31.6562 100.125 33.3281 98.6875 34.7031C97.2812 36.0469 95.4844 36.7812 93.2969 36.9062H88.0469C87.2031 36.875 86.4844 36.5781 85.8906 36.0156C85.3281 35.4219 85.0312 34.7031 85 33.8594C85 32.9844 85.2812 32.2344 85.8438 31.6094C86.4375 30.9844 87.1719 30.6562 88.0469 30.625H91.7031C92.8906 30.5625 93.875 30.1094 94.6562 29.2656C95.4375 28.4219 95.9219 27.4688 96.1094 26.4062C96.3281 25.3125 96.4219 24.125 96.3906 22.8438V11.5469C96.4219 10.6719 96.75 9.95312 97.375 9.39062C98 8.79688 98.75 8.5 99.625 8.5ZM83.4531 26.9219L82 26.8281C79.7188 26.6094 77.9375 26.0469 76.6562 25.1406C75.375 24.2031 74.6719 22.625 74.5469 20.4062V11.7812C74.5781 10.9375 74.875 10.2344 75.4375 9.67188C76 9.07813 76.6875 8.76562 77.5 8.73438C78.3438 8.73438 79.0625 9.03125 79.6562 9.625C80.2812 10.1875 80.6094 10.9063 80.6406 11.7812V18.625C80.6406 19.3438 80.75 19.875 80.9688 20.2188C81.1875 20.5312 81.7031 20.7344 82.5156 20.8281C83.2656 20.8594 83.9062 20.9375 84.4375 21.0625C84.9688 21.1562 85.4375 21.5938 85.8438 22.375C86.2188 23.125 86.2812 23.9219 86.0312 24.7656C85.7812 25.5781 85.2812 26.1719 84.5312 26.5469C84.1562 26.7344 83.7969 26.8594 83.4531 26.9219ZM109.656 15.2031C109.656 14.4219 109.953 13.75 110.547 13.1875C111.172 12.625 111.922 12.3438 112.797 12.3438H125.359L125.172 11.2656C125.078 10.4531 125.297 9.71875 125.828 9.0625C126.359 8.40625 127.047 8 127.891 7.84375C128.734 7.75 129.484 7.9375 130.141 8.40625C130.828 8.875 131.25 9.5 131.406 10.2812L131.734 12.3438H139.328C140.203 12.3438 140.953 12.6094 141.578 13.1406C142.172 13.7344 142.469 14.4219 142.469 15.2031C142.469 15.9844 142.156 16.6562 141.531 17.2188C140.938 17.7812 140.203 18.0625 139.328 18.0625H132.672L133.562 23.4531C133.656 25.2969 132.797 26.4375 130.984 26.875C130.109 27.0312 129.312 26.875 128.594 26.4062C127.875 25.9375 127.438 25.2969 127.281 24.4844L126.25 18.0625H112.797C111.922 18.0625 111.188 17.7812 110.594 17.2188C109.969 16.6562 109.656 15.9844 109.656 15.2031ZM118.516 26.1719C118.141 26.9844 117.953 27.5781 117.953 27.9531C117.953 28.3281 118.047 28.7188 118.234 29.125C118.422 29.5312 118.703 29.8906 119.078 30.2031C119.484 30.4844 119.984 30.625 120.578 30.625H136.703C137.578 30.625 138.312 30.9375 138.906 31.5625C139.531 32.1562 139.844 32.8906 139.844 33.7656C139.844 34.6406 139.531 35.375 138.906 35.9688C138.312 36.5938 137.578 36.9062 136.703 36.9062H120.859C118.672 36.9062 116.859 36.4062 115.422 35.4062C114.016 34.375 113 33.2188 112.375 31.9375C111.781 30.6562 111.484 29.3438 111.484 28C111.484 26.6875 111.797 25.3906 112.422 24.1094C113.047 22.8281 113.938 21.9062 115.094 21.3438C116.25 20.7812 117.422 21.0312 118.609 22.0938C119.828 23.1562 119.797 24.5156 118.516 26.1719ZM150.531 11.7344C150.531 11.0469 150.828 10.4688 151.422 10C152.047 9.5 152.797 9.25 153.672 9.25H173.078C173.953 9.25 174.703 9.48438 175.328 9.95312C175.922 10.4531 176.219 11.0469 176.219 11.7344C176.219 12.1719 176.094 12.5781 175.844 12.9531L169.75 17.4531H171.297C173.297 17.5469 175 18.1094 176.406 19.1406C177.812 20.1406 178.828 21.2969 179.453 22.6094C180.078 23.9219 180.391 25.2344 180.391 26.5469C180.391 28.3281 180.078 29.875 179.453 31.1875C178.859 32.4688 177.844 33.7344 176.406 34.9844C175 36.2031 173.203 36.8594 171.016 36.9531H156.391C154.953 36.9219 153.641 36.5625 152.453 35.875C151.266 35.1875 150.422 34.4062 149.922 33.5312C149.453 32.6562 149.219 31.8281 149.219 31.0469C149.219 30.2344 149.453 29.375 149.922 28.4688C150.391 27.5312 151.25 26.75 152.5 26.125C153.781 25.4688 155.156 25.1719 156.625 25.2344H161.734C164.547 25.3594 166.594 26.2188 167.875 27.8125C168.781 29 169.375 30.3438 169.656 31.8438H171.297C171.891 31.8438 172.375 31.6094 172.75 31.1406C173.156 30.6406 173.453 30.0781 173.641 29.4531C173.828 28.7969 173.922 27.9688 173.922 26.9688C173.922 26.375 173.828 25.7656 173.641 25.1406C173.453 24.4844 173.156 23.9219 172.75 23.4531C172.375 22.9844 171.891 22.75 171.297 22.75H150.672C149.797 22.75 149.062 22.4844 148.469 21.9531C147.844 21.4531 147.531 20.8438 147.531 20.125C147.531 19.375 147.828 18.75 148.422 18.25C149.047 17.7188 149.797 17.4531 150.672 17.4531H161.359L165.531 14.2188H153.672C152.797 14.2188 152.062 13.9688 151.469 13.4688C150.844 13 150.531 12.4219 150.531 11.7344ZM161.781 29.4062H156.906C156.562 29.375 156.266 29.4375 156.016 29.5938C155.797 29.7188 155.625 29.8906 155.5 30.1094C155.406 30.3281 155.359 30.4844 155.359 30.5781C155.359 30.7656 155.406 30.9531 155.5 31.1406C155.625 31.2969 155.797 31.4531 156.016 31.6094C156.266 31.7656 156.562 31.8438 156.906 31.8438H164.312C163.875 30.2812 163.031 29.4688 161.781 29.4062ZM201.297 7.98438C202.922 7.98438 204.516 8.17188 206.078 8.54688C207.672 8.92188 209.188 9.48438 210.625 10.2344C212.062 10.9531 213.359 11.9219 214.516 13.1406C215.672 14.3594 216.25 15.8125 216.25 17.5V27.8125C216.25 30.6562 215.656 33.375 214.469 35.9688C213.562 37.5938 212.203 38.1094 210.391 37.5156C209.609 37.1406 209.031 36.5625 208.656 35.7812C208.312 35 208.312 34.2188 208.656 33.4375C209.469 31.625 209.891 29.75 209.922 27.8125V18.9531C209.859 17.9844 209.484 17.1875 208.797 16.5625C208.141 15.9062 207.406 15.3906 206.594 15.0156C205.875 14.7031 205.156 14.4531 204.438 14.2656V27.9062C204.438 30.0938 203.938 31.9062 202.938 33.3438C201.938 34.75 200.781 35.7656 199.469 36.3906C198.188 36.9844 196.844 37.2812 195.438 37.2812C194.125 37.2812 192.812 36.9688 191.5 36.3438C190.219 35.7188 189.062 34.7031 188.031 33.2969C187 31.8906 186.484 30.0938 186.484 27.9062V27.625V17.5C186.484 15.8125 187.031 14.3594 188.125 13.1406C189.25 11.9219 190.531 10.9531 191.969 10.2344C193.406 9.48438 194.906 8.92188 196.469 8.54688C198.062 8.17188 199.672 7.98438 201.297 7.98438ZM192.672 28.1875C192.672 28.7812 192.828 29.2812 193.141 29.6875C193.484 30.0625 193.844 30.3438 194.219 30.5312C194.594 30.7188 194.984 30.8125 195.391 30.8125C195.766 30.8125 196.156 30.7188 196.562 30.5312C197 30.3438 197.359 30.0625 197.641 29.6875C197.953 29.2812 198.125 28.7812 198.156 28.1875V14.2656C197.438 14.4531 196.734 14.7031 196.047 15.0156C195.203 15.3906 194.422 15.9062 193.703 16.5625C193.016 17.1875 192.672 17.9844 192.672 18.9531V28.1875ZM222.484 33.7656C222.484 32.8906 222.781 32.1562 223.375 31.5625C224 30.9375 224.75 30.625 225.625 30.625H234.625V15.5312H225.625C224.75 15.5312 224.016 15.2188 223.422 14.5938C222.797 14 222.484 13.2656 222.484 12.3906C222.484 11.5156 222.781 10.7812 223.375 10.1875C224 9.5625 224.75 9.25 225.625 9.25H249.906C250.781 9.25 251.531 9.54688 252.156 10.1406C252.75 10.7656 253.047 11.5156 253.047 12.3906C253.047 13.2656 252.734 14.0156 252.109 14.6406C251.516 15.2344 250.781 15.5312 249.906 15.5312H240.953V30.625H249.906C250.781 30.625 251.531 30.9219 252.156 31.5156C252.75 32.1406 253.047 32.8906 253.047 33.7656C253.047 34.6406 252.734 35.3906 252.109 36.0156C251.516 36.6094 250.781 36.9062 249.906 36.9062H225.625C224.75 36.9062 224.016 36.5938 223.422 35.9688C222.797 35.375 222.484 34.6406 222.484 33.7656ZM258.391 12.3906C258.391 11.5156 258.688 10.7812 259.281 10.1875C259.906 9.5625 260.656 9.25 261.531 9.25H273.625C274.5 9.25 275.25 9.54688 275.875 10.1406C276.469 10.7656 276.766 11.5156 276.766 12.3906C276.766 13.2656 276.453 14.0156 275.828 14.6406C275.234 15.2344 274.5 15.5312 273.625 15.5312H261.531C260.656 15.5312 259.922 15.2188 259.328 14.5938C258.703 14 258.391 13.2656 258.391 12.3906ZM289.703 12.625L285.391 25.9375C284.141 29.5 282.578 32.1875 280.703 34C278.828 35.8125 276.781 36.7812 274.562 36.9062H265.75C264.906 36.875 264.188 36.5781 263.594 36.0156C263.031 35.4219 262.734 34.7031 262.703 33.8594C262.703 32.9844 262.984 32.2344 263.547 31.6094C264.141 30.9844 264.875 30.6562 265.75 30.625H272.969C274.156 30.5625 275.266 30.1094 276.297 29.2656C277.359 28.4219 278.156 27.4688 278.688 26.4062C279.219 25.3125 279.672 24.125 280.047 22.8438L283.891 10.5625C284.109 9.90625 284.422 9.375 284.828 8.96875C285.266 8.53125 285.922 8.3125 286.797 8.3125C287.641 8.3125 288.359 8.625 288.953 9.25C289.578 9.875 289.891 10.625 289.891 11.5C289.891 11.9062 289.828 12.2812 289.703 12.625ZM294.953 12.3906C294.953 11.5156 295.25 10.7812 295.844 10.1875C296.469 9.5625 297.219 9.25 298.094 9.25H311.688C312.562 9.25 313.312 9.54688 313.938 10.1406C314.531 10.7656 314.828 11.5156 314.828 12.3906C314.828 13.2656 314.516 14.0156 313.891 14.6406C313.297 15.2344 312.562 15.5312 311.688 15.5312H298.094C297.219 15.5312 296.484 15.2188 295.891 14.5938C295.266 14 294.953 13.2656 294.953 12.3906ZM295.141 22.1406C295.141 21.2656 295.438 20.5312 296.031 19.9375C296.656 19.3125 297.406 19 298.281 19H310.375C311.25 19 312 19.2969 312.625 19.8906C313.219 20.5156 313.516 21.2656 313.516 22.1406C313.516 23.0156 313.203 23.7656 312.578 24.3906C311.984 24.9844 311.25 25.2812 310.375 25.2812H298.281C297.406 25.2812 296.672 24.9688 296.078 24.3438C295.453 23.75 295.141 23.0156 295.141 22.1406ZM324.203 8.5C325.047 8.53125 325.719 8.84375 326.219 9.4375C326.75 10 326.984 10.7031 326.922 11.5469L325.328 23.4062C325.016 25.625 324.438 27.7188 323.594 29.6875C322.688 31.6562 321.422 33.3281 319.797 34.7031C318.203 36.0469 316.312 36.7812 314.125 36.9062H305.312C304.469 36.875 303.75 36.5781 303.156 36.0156C302.594 35.4219 302.297 34.7031 302.266 33.8594C302.266 32.9844 302.547 32.2344 303.109 31.6094C303.703 30.9844 304.438 30.6562 305.312 30.625H313.375C314.562 30.5625 315.594 30.1094 316.469 29.2656C317.375 28.4219 318 27.4688 318.344 26.4062C318.688 25.3125 318.938 24.125 319.094 22.8438L320.594 11.5469C320.75 10.6719 321.172 9.95312 321.859 9.39062C322.547 8.79688 323.328 8.5 324.203 8.5ZM312.953 4C312.953 3.0625 313.281 2.26562 313.938 1.60938C314.594 0.953125 315.391 0.625 316.328 0.625C317.266 0.625 318.062 0.953125 318.719 1.60938C319.375 2.26562 319.703 3.0625 319.703 4C319.703 4.9375 319.375 5.73438 318.719 6.39062C318.062 7.04688 317.266 7.375 316.328 7.375C315.391 7.375 314.594 7.04688 313.938 6.39062C313.281 5.73438 312.953 4.9375 312.953 4ZM321.016 4C321.016 3.0625 321.344 2.26562 322 1.60938C322.656 0.953125 323.453 0.625 324.391 0.625C325.328 0.625 326.125 0.953125 326.781 1.60938C327.438 2.26562 327.766 3.0625 327.766 4C327.766 4.9375 327.438 5.73438 326.781 6.39062C326.125 7.04688 325.328 7.375 324.391 7.375C323.453 7.375 322.656 7.04688 322 6.39062C321.344 5.73438 321.016 4.9375 321.016 4ZM332.453 33.7656C332.453 32.8906 332.75 32.1562 333.344 31.5625C333.969 30.9375 334.719 30.625 335.594 30.625H358.281C359.156 30.625 359.906 30.9219 360.531 31.5156C361.125 32.1406 361.422 32.8906 361.422 33.7656C361.422 34.6406 361.109 35.3906 360.484 36.0156C359.891 36.6094 359.156 36.9062 358.281 36.9062H335.594C334.719 36.9062 333.984 36.5938 333.391 35.9688C332.766 35.375 332.453 34.6406 332.453 33.7656ZM332.453 12.3906C332.453 11.5156 332.75 10.7812 333.344 10.1875C333.969 9.5625 334.719 9.25 335.594 9.25H358.281C359.156 9.25 359.906 9.54688 360.531 10.1406C361.125 10.7656 361.422 11.5156 361.422 12.3906C361.422 13.2656 361.109 14.0156 360.484 14.6406C359.891 15.2344 359.156 15.5312 358.281 15.5312H335.594C334.719 15.5312 333.984 15.2188 333.391 14.5938C332.766 14 332.453 13.2656 332.453 12.3906ZM367.141 12.3906C367.141 11.5156 367.438 10.7812 368.031 10.1875C368.656 9.5625 369.406 9.25 370.281 9.25H390.906C393.031 9.34375 394.797 9.95312 396.203 11.0781C397.609 12.1719 398.625 13.4219 399.25 14.8281C399.875 16.2344 400.188 17.6562 400.188 19.0938C400.188 20.5938 399.875 22.0469 399.25 23.4531C398.656 24.8594 397.641 26.125 396.203 27.25C394.797 28.3438 393 28.875 390.812 28.8438H388.188C387.312 28.8438 386.578 28.5312 385.984 27.9062C385.359 27.3125 385.047 26.5781 385.047 25.7031C385.047 24.8281 385.344 24.0938 385.938 23.5C386.562 22.875 387.312 22.5625 388.188 22.5625H391.094C391.688 22.5625 392.172 22.375 392.547 22C392.953 21.5938 393.25 21.1406 393.438 20.6406C393.625 20.1094 393.719 19.5781 393.719 19.0469C393.719 18.5469 393.625 18.0469 393.438 17.5469C393.25 17.0156 392.953 16.5625 392.547 16.1875C392.172 15.7812 391.688 15.5625 391.094 15.5312H370.281C369.406 15.5312 368.672 15.2188 368.078 14.5938C367.453 14 367.141 13.2656 367.141 12.3906ZM381.203 17.875C382.047 17.9062 382.719 18.2188 383.219 18.8125C383.75 19.375 383.984 20.0781 383.922 20.9219L383.641 23.4062C383.328 25.625 382.75 27.7188 381.906 29.6875C381 31.6562 379.734 33.3281 378.109 34.7031C376.516 36.0469 374.625 36.7812 372.438 36.9062H370.375C369.531 36.875 368.812 36.5781 368.219 36.0156C367.656 35.4219 367.359 34.7031 367.328 33.8594C367.328 32.9844 367.609 32.2344 368.172 31.6094C368.766 30.9844 369.5 30.6562 370.375 30.625H371.688C372.875 30.5625 373.906 30.1094 374.781 29.2656C375.688 28.4219 376.312 27.4688 376.656 26.4062C377 25.3125 377.25 24.125 377.406 22.8438L377.594 20.9219C377.75 20.0469 378.172 19.3281 378.859 18.7656C379.547 18.1719 380.328 17.875 381.203 17.875Z" fill="white"/>
</svg>
